<svg width="1024" height="1024" viewBox="0 0 1024 1024" fill="none" xmlns="http://www.w3.org/2000/svg">
<rect width="1024" height="1024" fill="#3C4354"/>
<path d="M63.8 512V472.44L104.74 458.64L94.62 473.82V226.8L107.5 242.9L63.8 228.64V189.08L205.48 186.78V226.34L163.16 242.9L174.66 226.34V329.84L162.7 317.42H297.94L285.52 329.84V226.8L297.94 242.9L255.16 228.64V189.08L396.38 186.78V226.34L355.44 242.44L365.56 226.34V473.82L355.44 458.64L396.38 472.44V512H255.16V472.44L295.64 458.64L285.52 473.82V362.5L297.94 374.46H162.7L174.66 362.5V473.82L165 458.64L205.48 472.44V512H63.8ZM418.093 617.8V578.24L455.813 563.98L446.153 576.4V308.68L454.893 318.8L418.093 305.92V266.82L506.873 262.68L515.613 302.7L507.333 298.1C521.44 285.22 535.24 275.56 548.733 269.12C562.533 262.373 576.793 259 591.513 259C609.607 259 625.4 263.753 638.893 273.26C652.387 282.46 662.967 296.107 670.633 314.2C678.3 332.293 682.133 354.68 682.133 381.36C682.133 411.72 676.92 437.02 666.493 457.26C656.373 477.5 641.96 492.833 623.253 503.26C604.853 513.38 583.387 518.44 558.853 518.44C551.8 518.44 544.593 517.827 537.233 516.6C530.18 515.68 522.82 514.453 515.153 512.92L524.353 504.64V576.4L516.993 565.36L557.473 578.24V617.8H418.093ZM548.273 463.24C567.593 463.24 581.24 456.647 589.213 443.46C597.187 429.967 601.173 412.027 601.173 389.64C601.173 374.613 599.487 361.58 596.113 350.54C593.047 339.5 588.6 330.913 582.773 324.78C576.947 318.647 569.587 315.58 560.693 315.58C553.64 315.58 546.433 317.573 539.073 321.56C531.713 325.24 523.74 330.76 515.153 338.12L524.353 318.34V472.9L515.153 458.18C527.727 461.553 538.767 463.24 548.273 463.24ZM698.341 512V472.44L735.601 460.02L726.401 473.82V198.74L731.461 207.02L698.341 195.98V156.88L804.601 152.28V362.96L792.181 351.92H848.761L830.361 360.66L867.621 305L873.141 312.82L843.701 306.38V267.28L961.001 262.68V302.24L924.201 311.44L944.441 299.94L888.321 380.9L889.701 361.58L946.281 472.44L935.701 462.32L968.821 472.44V512H886.021L832.201 398.38L843.241 403.44H792.181L804.601 398.38V473.82L797.241 459.56L830.821 472.44V512H698.341Z" fill="white"/>
<path d="M517.8 850.6C517.8 842.333 520.6 835.667 526.2 830.6C532.067 825.533 538.733 823 546.2 823C554.733 823 561.533 825.533 566.6 830.6C571.667 835.667 574.2 842.333 574.2 850.6C574.2 858.867 571.4 865.533 565.8 870.6C560.2 875.667 553.667 878.2 546.2 878.2C537.667 878.2 530.733 875.667 525.4 870.6C520.333 865.533 517.8 858.867 517.8 850.6ZM680.434 846.2L676.434 841.8L708.434 850.2V875H604.034V850.2L636.034 841.8L632.434 846.2V692.6L635.634 696.2L604.034 688.2V663.4L680.434 660.6V846.2ZM654.434 625.4C645.634 625.4 638.568 622.867 633.234 617.8C627.901 612.733 625.234 605.667 625.234 596.6C625.234 586.733 628.034 579.4 633.634 574.6C639.234 569.533 646.301 567 654.834 567C663.101 567 669.901 569.4 675.234 574.2C680.834 579 683.634 586.333 683.634 596.2C683.634 605.8 680.834 613.133 675.234 618.2C669.634 623 662.701 625.4 654.434 625.4ZM833.453 657.8C864.386 657.8 888.386 667.133 905.453 685.8C922.786 704.2 931.453 730.467 931.453 764.6C931.453 788.333 927.186 808.733 918.653 825.8C910.386 842.867 898.386 856.067 882.653 865.4C867.186 874.733 848.52 879.4 826.653 879.4C795.986 879.4 772.12 870.2 755.053 851.8C738.253 833.4 729.853 807 729.853 772.6C729.853 748.867 733.986 728.467 742.253 711.4C750.52 694.333 762.386 681.133 777.853 671.8C793.32 662.467 811.853 657.8 833.453 657.8ZM831.053 692.2C814.253 692.2 801.453 698.733 792.653 711.8C784.12 724.867 779.853 744.333 779.853 770.2C779.853 796.067 783.986 815 792.253 827C800.52 839 812.786 845 829.053 845C840.786 845 850.52 842.067 858.253 836.2C865.986 830.067 871.853 821.267 875.853 809.8C879.853 798.067 881.853 783.8 881.853 767C881.853 741.933 877.453 723.267 868.653 711C860.12 698.467 847.586 692.2 831.053 692.2Z" fill="white"/>
</svg>
